<svg xmlns="http://www.w3.org/2000/svg" width="11" height="11" viewBox="0 0 11 11">
    <path fill="#0060FE" fill-rule="nonzero" d="M7.377.2a3.049 3.049 0 0 1 3.045 3.045v4.132a3.049 3.049 0 0 1-3.045 3.045H3.245A3.049 3.049 0 0 1 .2 7.377V3.245A3.049 3.049 0 0 1 3.245.2zm0 1.028H3.245a2.017 2.017 0 0 0-2.017 2.017v4.132c0 1.114.903 2.017 2.017 2.017h4.132a2.017 2.017 0 0 0 2.017-2.017V3.245a2.017 2.017 0 0 0-2.017-2.017zM5.31 2.668A2.647 2.647 0 0 1 7.955 5.31 2.647 2.647 0 0 1 5.31 7.955 2.647 2.647 0 0 1 2.667 5.31a2.647 2.647 0 0 1 2.644-2.644zm0 1.028a1.615 1.615 0 1 0 0 3.23 1.615 1.615 0 0 0 0-3.23zM7.96 2.054a.634.634 0 1 1 0 1.267.634.634 0 0 1 0-1.267z"/>
</svg>
