<svg xmlns="http://www.w3.org/2000/svg" width="22" height="22" viewBox="0 0 22 22">
    <g fill="none" fill-rule="nonzero">
        <circle cx="10.843" cy="10.843" r="10.843" fill="#F0F0F0"/>
        <g fill="#D80027">
            <path d="M.374 13.671a10.852 10.852 0 0 0 3.869 5.774v-5.774H.373zM9.9 21.644c.31.027.625.042.943.042 5.01 0 9.225-3.398 10.47-8.015H9.9v7.973zM21.312 8.014C20.068 3.398 15.852 0 10.842 0c-.317 0-.631.014-.942.041v7.973h11.412zM4.243 2.24a10.852 10.852 0 0 0-3.87 5.774h3.87V2.24z"/>
        </g>
        <path fill="#0052B4" d="M21.594 9.429H8.486V.258a10.77 10.77 0 0 0-2.829 1.06v8.11H.092a10.936 10.936 0 0 0 0 2.83h5.565v8.11a10.77 10.77 0 0 0 2.829 1.06v-9.17h13.108a10.951 10.951 0 0 0 0-2.83z"/>
    </g>
</svg>
