<svg xmlns="http://www.w3.org/2000/svg" width="12" height="9" viewBox="0 0 12 9">
    <path fill="#0060FE" fill-rule="nonzero" d="M11.6 1.042a4.708 4.708 0 0 1-1.32.35c.475-.276.839-.71 1.01-1.23-.443.255-.935.44-1.458.54A2.333 2.333 0 0 0 8.154 0C6.885 0 5.856.995 5.856 2.222c0 .174.02.343.06.506A6.6 6.6 0 0 1 1.18.406c-.198.328-.312.71-.312 1.117 0 .771.406 1.451 1.023 1.85A2.342 2.342 0 0 1 .85 3.094v.029c0 1.076.792 1.974 1.843 2.178a2.364 2.364 0 0 1-1.038.038c.293.883 1.141 1.525 2.147 1.543a4.712 4.712 0 0 1-2.854.95c-.185 0-.369-.01-.548-.03a6.663 6.663 0 0 0 3.522.998c4.227 0 6.538-3.385 6.538-6.321 0-.096-.002-.192-.007-.287.45-.314.84-.705 1.147-1.15z"/>
</svg>
