<svg xmlns="http://www.w3.org/2000/svg" width="14" height="10" viewBox="0 0 14 10">
    <path fill="#0060FE" fill-rule="nonzero" d="M7.27.2c.929.007 3.877.044 4.715.273A1.6 1.6 0 0 1 13.111 1.6c.238.87.261 2.56.263 2.985v.144c-.001.308-.022 2.116-.263 3.03a1.6 1.6 0 0 1-1.126 1.125c-.903.238-4.252.261-4.892.263H6.88c-.638-.002-3.98-.026-4.892-.273A1.601 1.601 0 0 1 .862 7.747C.645 6.929.607 5.365.601 4.845v-.344C.607 3.984.645 2.425.862 1.6c.148-.547.59-.989 1.126-1.136C2.827.242 5.775.206 6.704.2zM5.714 2.758V6.59l3.325-1.916-3.325-1.916z"/>
</svg>
